<svg xmlns="http://www.w3.org/2000/svg" xmlns:xlink="http://www.w3.org/1999/xlink" width="160" zoomAndPan="magnify" viewBox="0 0 120 44.999999" height="60" preserveAspectRatio="xMidYMid meet" version="1.0"><defs><g/><clipPath id="0881c733b6"><path d="M 3.394531 3 L 48 3 L 48 42.824219 L 3.394531 42.824219 Z M 3.394531 3 " clip-rule="nonzero"/></clipPath></defs><g clip-path="url(#0881c733b6)"><path fill="#dddddd" d="M 47.125 3.582031 C 47.730469 4.070312 48.035156 4.84375 47.929688 5.617188 L 43.472656 37.914062 C 43.375 38.625 42.941406 39.246094 42.304688 39.578125 C 41.667969 39.914062 40.914062 39.921875 40.269531 39.601562 L 26.582031 32.757812 L 22.050781 40.917969 C 21.613281 41.703125 20.742188 42.152344 19.847656 42.046875 C 18.953125 41.945312 18.207031 41.3125 17.960938 40.449219 L 13.792969 25.855469 L 4.71875 21.824219 C 3.886719 21.457031 3.363281 20.617188 3.394531 19.710938 C 3.429688 18.800781 4.011719 18.003906 4.867188 17.695312 L 44.964844 3.21875 C 45.699219 2.953125 46.515625 3.089844 47.125 3.582031 Z M 11.589844 20.003906 L 16.550781 22.210938 C 17.15625 22.476562 17.609375 23 17.789062 23.632812 L 20.765625 34.054688 L 23.726562 28.730469 C 24.304688 27.6875 25.601562 27.289062 26.667969 27.820312 L 39.484375 34.226562 L 43.011719 8.660156 Z M 11.589844 20.003906 " fill-opacity="1" fill-rule="evenodd"/></g><path fill="#dddddd" d="M 47.605469 4.125 C 48.261719 5.167969 47.949219 6.542969 46.910156 7.195312 L 16.835938 26.128906 C 15.792969 26.785156 14.417969 26.472656 13.761719 25.429688 C 13.105469 24.390625 13.417969 23.015625 14.460938 22.359375 L 44.535156 3.425781 C 45.574219 2.773438 46.953125 3.085938 47.605469 4.125 Z M 47.605469 4.125 " fill-opacity="1" fill-rule="evenodd"/><path fill="#dddddd" d="M 47.132812 3.589844 C 48.085938 4.367188 48.226562 5.769531 47.445312 6.722656 L 27.394531 31.222656 C 26.617188 32.175781 25.214844 32.316406 24.261719 31.535156 C 23.308594 30.757812 23.167969 29.355469 23.949219 28.402344 L 43.996094 3.902344 C 44.777344 2.949219 46.179688 2.808594 47.132812 3.589844 Z M 47.132812 3.589844 " fill-opacity="1" fill-rule="evenodd"/><g fill="#dddddd" fill-opacity="1"><g transform="translate(54.956458, 10.551684)"><g><path d="M 0.53125 -8.328125 L 2.5625 -8.328125 L 4.96875 -3.171875 L 7.390625 -8.328125 L 9.40625 -8.328125 L 9.40625 0 L 7.4375 0 L 7.4375 -4.1875 L 5.453125 0 L 4.5 0 L 2.515625 -4.1875 L 2.515625 0 L 0.53125 0 Z M 0.53125 -8.328125 "/></g></g></g><g fill="#dddddd" fill-opacity="1"><g transform="translate(70.739022, 10.551684)"><g><path d="M 0.53125 -8.328125 L 6.453125 -8.328125 L 6.453125 -6.5625 L 2.640625 -6.5625 L 2.640625 -5 L 5.421875 -5 L 5.421875 -3.34375 L 2.640625 -3.34375 L 2.640625 -1.78125 L 6.453125 -1.78125 L 6.453125 0 L 0.53125 0 Z M 0.53125 -8.328125 "/></g></g></g><g fill="#dddddd" fill-opacity="1"><g transform="translate(83.324803, 10.551684)"><g><path d="M 0.53125 -8.328125 L 3.53125 -8.328125 C 4.445312 -8.328125 5.242188 -8.160156 5.921875 -7.828125 C 6.609375 -7.492188 7.132812 -7.015625 7.5 -6.390625 C 7.875 -5.765625 8.0625 -5.035156 8.0625 -4.203125 C 8.0625 -2.828125 7.65625 -1.78125 6.84375 -1.0625 C 6.03125 -0.351562 4.90625 0 3.46875 0 L 0.53125 0 Z M 3.640625 -1.78125 C 4.367188 -1.78125 4.925781 -2 5.3125 -2.4375 C 5.695312 -2.875 5.890625 -3.460938 5.890625 -4.203125 C 5.890625 -4.890625 5.695312 -5.453125 5.3125 -5.890625 C 4.925781 -6.335938 4.394531 -6.5625 3.71875 -6.5625 L 2.640625 -6.5625 L 2.640625 -1.78125 Z M 3.640625 -1.78125 "/></g></g></g><g fill="#dddddd" fill-opacity="1"><g transform="translate(97.520902, 10.551684)"><g><path d="M 0.53125 -8.328125 L 2.640625 -8.328125 L 2.640625 0 L 0.53125 0 Z M 0.53125 -8.328125 "/></g></g></g><g fill="#dddddd" fill-opacity="1"><g transform="translate(106.540122, 10.551684)"><g><path d="M 3.640625 -8.328125 L 5.703125 -8.328125 L 9.03125 0 L 6.875 0 L 6.21875 -1.71875 L 3.140625 -1.71875 L 2.46875 0 L 0.296875 0 Z M 5.6875 -3.34375 L 4.671875 -6.140625 L 3.640625 -3.34375 Z M 5.6875 -3.34375 "/></g></g></g><g fill="#dddddd" fill-opacity="1"><g transform="translate(53.690543, 38.375687)"><g><path d="M 1.34375 -23.453125 L 13.59375 -23.453125 C 15.875 -23.453125 17.703125 -22.890625 19.078125 -21.765625 C 20.453125 -20.640625 21.140625 -19.023438 21.140625 -16.921875 C 21.140625 -15.972656 20.929688 -15.082031 20.515625 -14.25 C 20.109375 -13.425781 19.515625 -12.757812 18.734375 -12.25 C 19.828125 -11.757812 20.625 -11.109375 21.125 -10.296875 C 21.625 -9.492188 21.875 -8.445312 21.875 -7.15625 C 21.875 -5.695312 21.523438 -4.425781 20.828125 -3.34375 C 20.140625 -2.257812 19.207031 -1.429688 18.03125 -0.859375 C 16.863281 -0.285156 15.5625 0 14.125 0 L 1.34375 0 Z M 11.78125 -14.359375 C 12.539062 -14.359375 13.113281 -14.523438 13.5 -14.859375 C 13.894531 -15.203125 14.09375 -15.742188 14.09375 -16.484375 C 14.09375 -17.242188 13.898438 -17.773438 13.515625 -18.078125 C 13.140625 -18.378906 12.550781 -18.53125 11.75 -18.53125 L 8.296875 -18.53125 L 8.296875 -14.359375 Z M 12.1875 -4.9375 C 13.101562 -4.9375 13.769531 -5.101562 14.1875 -5.4375 C 14.613281 -5.769531 14.828125 -6.351562 14.828125 -7.1875 C 14.828125 -7.988281 14.609375 -8.578125 14.171875 -8.953125 C 13.742188 -9.335938 13.054688 -9.53125 12.109375 -9.53125 L 8.296875 -9.53125 L 8.296875 -4.9375 Z M 12.1875 -4.9375 "/></g></g></g><g fill="#dddddd" fill-opacity="1"><g transform="translate(80.032442, 38.375687)"><g><path d="M 1.34375 -23.453125 L 8.296875 -23.453125 L 8.296875 0 L 1.34375 0 Z M 1.34375 -23.453125 "/></g></g></g><g fill="#dddddd" fill-opacity="1"><g transform="translate(93.455068, 38.375687)"><g><path d="M 1.34375 -23.453125 L 8.09375 -23.453125 L 15.40625 -11.171875 L 15.40625 -23.453125 L 22.359375 -23.453125 L 22.359375 0 L 15.640625 0 L 8.296875 -12.28125 L 8.296875 0 L 1.34375 0 Z M 1.34375 -23.453125 "/></g></g></g></svg>